<?xml version="1.0" standalone="no"?><!DOCTYPE svg PUBLIC "-//W3C//DTD SVG 1.1//EN" "http://www.w3.org/Graphics/SVG/1.1/DTD/svg11.dtd"><svg t="1760720943719" class="icon" viewBox="0 0 1145 1024" version="1.1" xmlns="http://www.w3.org/2000/svg" p-id="6930" width="35.78125" height="32" xmlns:xlink="http://www.w3.org/1999/xlink"><path d="M189.74227665 528.84312766a108.00229 108.00229 0 1 0 216.004579 0 108.00229 108.00229 0 1 0-216.004579 0Z" fill="#FF6B6B" p-id="6931"></path><path d="M555.28848765 772.54060166a91.386553 91.386553 0 1 0 182.773106 0 91.386553 91.386553 0 1 0-182.773106 0Z" fill="#141414" p-id="6932"></path><path d="M765.75448865 545.45886466a80.309395 80.309395 0 1 0 160.618789 0 80.309395 80.309395 0 1 0-160.618789 0Z" fill="#902ED1" p-id="6933"></path><path d="M472.20980365 481.76520666a99.694421 99.694421 0 1 0 199.388842 0 99.694421 99.694421 0 1 0-199.388842 0Z" fill="#1677FF" p-id="6934"></path><path d="M422.36259265 240.83702166a69.232237 69.232237 0 1 0 138.464474 0 69.232237 69.232237 0 1 0-138.464474 0Z" fill="#FF9F43" p-id="6935"></path><path d="M677.14276365 231.06142966a95.623566 93.2309 90 1 0 186.461799 0 95.623566 93.2309 90 1 0-186.461799 0Z" fill="#13C2C2" p-id="6936"></path></svg>